<?xml version="1.0" encoding="UTF-8"?>
<!--
https://thenounproject.com/icon/tree-4494965/
Tree by Diky Setiawan from NounProject.com
-->
<svg width="700pt" height="600pt" version="1.1" viewBox="0 0 700 600" xmlns="http://www.w3.org/2000/svg">
	<g>
		<path
			d="m341.25 183.75v-70h17.5v70h-17.5v124.58l-31.176-37.406c8.3633-7.0625 13.676-17.621 13.676-29.41v-28.031c0-21.238-17.246-38.484-38.484-38.484h-28.031c-21.238 0-38.484 17.246-38.484 38.484v28.031c0 21.238 17.246 38.484 38.484 38.484h28.031c3.0117 0 5.9414-0.35156 8.7617-1.0078l-38.246-45.891 13.438-11.203 40.855 49.027c-4.5586 3.8594-10.035 6.668-16.047 8.0664l47.223 56.676v37.73l-52.5-15v-25.215c0-24.527-19.906-44.434-44.434-44.434h-33.633c-24.527 0-44.434 19.906-44.434 44.434v33.633c0 24.527 19.906 44.434 44.434 44.434h33.633c21.262 0 39.062-14.973 43.418-34.938l-71.051-20.301 4.8047-16.828 67.262 19.215v8.418c0 3.2578-0.35156 6.4336-1.0156 9.4961l53.516 15.285v54.715c-86.434 1.1445-171.72 19.309-223.61 53.906l-7.2812 4.8594 9.7148 14.559 7.2773-4.8555c51.363-34.238 137.04-51.031 222.64-51.031s171.28 16.793 222.64 51.031l7.2773 4.8555 9.7148-14.559-7.2812-4.8594c-51.887-34.598-137.17-52.762-223.61-53.906v-54.715l53.516-15.285c-0.66406-3.0625-1.0156-6.2383-1.0156-9.4961v-8.418l67.262-19.215 4.8047 16.828-71.051 20.301c4.3555 19.965 22.156 34.938 43.418 34.938h33.633c24.527 0 44.434-19.906 44.434-44.434v-33.633c0-24.527-19.906-44.434-44.434-44.434h-33.633c-24.527 0-44.434 19.906-44.434 44.434v25.215l-52.5 15v-37.73l47.223-56.676c-6.0117-1.3984-11.488-4.2148-16.047-8.0664l46.453-55.746 13.441 11.199-43.848 52.613c2.8203 0.65625 5.75 1.0078 8.7617 1.0078h28.031c21.238 0 38.484-17.246 38.484-38.484v-28.031c0-21.238-17.246-38.484-38.484-38.484h-28.031c-21.238 0-38.484 17.246-38.484 38.484v28.031c0 11.789 5.3125 22.348 13.676 29.41l-31.176 37.406v-124.58h8.0664c24.527 0 44.434-19.906 44.434-44.434v-33.633c0-24.527-19.906-44.434-44.434-44.434h-33.633c-24.527 0-44.434 19.906-44.434 44.434v33.633c0 24.527 19.906 44.434 44.434 44.434zm227.5 61.59c0-14.672-11.918-26.59-26.59-26.59h-16.82c-14.672 0-26.59 11.918-26.59 26.59v16.82c0 14.672 11.918 26.59 26.59 26.59h16.82c14.672 0 26.59-11.918 26.59-26.59v-16.82zm-437.5 0v16.82c0 14.672 11.918 26.59 26.59 26.59h16.82c14.672 0 26.59-11.918 26.59-26.59v-16.82c0-14.672-11.918-26.59-26.59-26.59h-16.82c-14.672 0-26.59 11.918-26.59 26.59zm367.5-122.5c0-14.672-11.918-26.59-26.59-26.59h-16.82c-14.672 0-26.59 11.918-26.59 26.59v16.82c0 14.672 11.918 26.59 26.59 26.59h16.82c14.672 0 26.59-11.918 26.59-26.59v-16.82zm-297.5 0v16.82c0 14.672 11.918 26.59 26.59 26.59h16.82c14.672 0 26.59-11.918 26.59-26.59v-16.82c0-14.672-11.918-26.59-26.59-26.59h-16.82c-14.672 0-26.59 11.918-26.59 26.59z"
			fill-rule="evenodd" />
	</g>
</svg>
