<?xml version="1.0" encoding="UTF-8"?>
<svg width="1280" height="640" version="1.1" viewBox="0 0 338.67 169.33" xml:space="preserve" xmlns="http://www.w3.org/2000/svg"><defs><marker id="CapRibbon1" overflow="visible" markerHeight="0.99999994" markerWidth="1.05" orient="auto-start-reverse" preserveAspectRatio="xMidYMid" viewBox="0 0 1.05 1"><path transform="scale(.5)" d="m0-1h2l-1 1 1 1h-2l-0.1-1z" fill="context-stroke"/></marker><marker id="Triangle" overflow="visible" markerHeight="0.40000001" markerWidth="0.40000001" orient="auto-start-reverse" preserveAspectRatio="xMidYMid" viewBox="0 0 1 1"><path transform="scale(.5)" d="m5.77 0-8.65 5v-10z" fill="context-stroke" fill-rule="evenodd" stroke="context-stroke" stroke-width="1pt"/></marker></defs><g transform="translate(-8.7454 -27.056)" stroke-dashoffset="74" stroke-linejoin="bevel" stroke-miterlimit="50"><rect x="8.7454" y="27.056" width="338.67" height="169.33" fill="#fff" stroke-linecap="round" stroke-width="4.2262"/><g fill="none" stroke="#000"><path d="m36.866 153.93h19.511c11.726 0 8.3758-13.57 19.856-13.44l15.601 0.17682" marker-start="url(#CapRibbon1)" stroke-linecap="square" stroke-width="6.4943"/><path d="m44.713 153.96h26.824c13.435-0.0434 9.0245 11.982 21.667 11.861h55.363c11.143-0.0323 8.5435-17.716 21.436-17.716h146.78" marker-end="url(#Triangle)" stroke-linecap="square" stroke-width="6.4943"/><g stroke-linecap="round"><path d="m46.022 136.39-1.5314-8.7076c-2.5622-14.569-7.3476-6.176-7.8752-21.482l-0.31897-9.2529" stroke-width="4.2213"/><path d="m46.283 143.99c0.02499-20.73-0.39432-54.639-2.7704-69.618" stroke-width="4.8707"/><g stroke-width="4.2213"><path d="m45.955 126.27 1.2883-13.971c1.0044-10.893 6.78-3.62 6.845-14.559l0.06588-11.087"/><path d="m47.394 138.55-0.55211-6.2476c-0.63279-7.1605 7.4688-3.9362 8.5712-10.881l1.5627-9.8451"/><path d="m89.823 130.09 0.20195-15.896c0.27282-21.475 9.451-9.4532 10.737-30.672l0.62508-10.314"/></g><path d="m89.862 130.41c-0.025036-20.73-0.58097-62.215 3.2097-76.84" stroke-width="4.871"/><g stroke-width="4.2213"><path d="m90.005 115.72-1.2865-15.443c-0.90817-10.901-5.3439-6.4471-7.3899-17.193l-1.8197-9.5571"/><path d="m88.727 127.07 0.78342-6.0467c0.92363-7.1289-8.7426-9.1507-9.8451-16.096l-1.5627-9.8451"/><path d="m122.15 156.11v-11.252c0-20.628-10.26-16.823-10.585-32.134l-0.27143-12.789"/></g><path d="m122.16 155.97c-0.025-20.73-0.39864-51.675 2.3311-67.184" stroke-width="4.8707"/><path d="m121.59 137.68 0.73614-12.682c0.63388-10.921 7.6772-3.0901 9.7175-13.837l1.9984-10.526" stroke-width="4.2213"/><path d="m120.53 152.96 1.3777-5.8157c1.657-6.9949 10.036-7.0486 10.397-14.072l0.4233-8.2233" stroke-width="4.2213"/></g></g><g fill="#fff" stroke="#000"><g stroke-linecap="square" stroke-width="2.7454"><circle cx="46.372" cy="154.21" r="5.3998"/><circle cx="89.715" cy="140.52" r="5.3998"/><circle cx="122.09" cy="166.25" r="5.3998"/></g><g stroke-linecap="round" stroke-width="3.2471"><path d="m88.814 74.248s0.58816-6.8537-3.8325-17.286"/><path d="m47.215 96.172s1.5371-9.3584 2.0502-20.171"/><path d="m129.91 117.76c4.0298-2.4179 5.0672-8.9717 8.5022-13.795"/></g></g><path d="m167.08 131.91c-0.33135-4.8756-0.49704-11.455-0.49704-19.739 0-8.3312 0.11832-13.728 0.35503-16.189 0.23668-1.5148 1.2781-2.5088 3.1242-2.9822 1.8461-0.5207 4.2839-0.78105 7.3134-0.78105 4.4496 0 8.1892 0.97039 11.219 2.9112 3.0768 1.8934 4.6153 4.71 4.6153 8.4495 0 3.0769-0.42602 5.6567-1.2781 7.7395-0.85206 2.0355-1.9171 3.5502-3.1952 4.5443-2.0828 1.6094-5.1597 2.4142-9.2306 2.4142-1.7514 0-4.0472-0.23668-6.8874-0.71005 0.23668 9.4672 0.33135 15.432 0.28401 17.893-0.0473 2.4615-0.87574 3.6922-2.4852 3.6922-1.0414 0-1.7041-0.18935-1.9881-0.56804-0.28403-0.37868-0.47337-0.63903-0.56805-0.78105-0.0946-0.18934-0.18934-0.44969-0.28401-0.78104-0.0946-0.33136-0.16568-0.59171-0.21302-0.78104-0.0473-0.2367-0.0948-0.56805-0.14201-0.99407 0-0.42603-0.0237-0.75738-0.0711-0.99406-0.0473-0.71005-0.071-1.4911-0.071-2.3432zm20.236-28.118c0-1.9408-1.0414-3.4555-3.1242-4.5443-2.0828-1.1361-4.3076-1.7041-6.6744-1.7041-2.3668 0-4.0236 0.21301-4.9703 0.63904-0.18934 2.7928-0.28402 5.3727-0.28402 7.7395 0 2.3195 0.0946 4.4259 0.28402 6.3194 1.2781 0.142 2.1538 0.26034 2.6272 0.35502 1.2307 0.142 2.2721 0.21301 3.1242 0.21301h1.7751c0.33136-0.0473 0.92306-0.11835 1.7751-0.21301 0.89939-0.14201 1.5384-0.35502 1.9171-0.63904s0.85205-0.66271 1.4201-1.1361c0.56802-0.47335 0.97038-1.0177 1.2071-1.6331 0.61538-1.7041 0.92307-3.5029 0.92307-5.3963zm28.179 2.2011c2.0828 0 3.1242 1.7751 3.1242 5.3253v1.2071l-0.14203 4.9703c-0.0473 1.5621-0.071 3.1005-0.071 4.6153l1.0651 16.047c0 1.1834-1.2071 1.7751-3.6212 1.7751h-1.0651c-0.52068 0-0.89937-0.21302-1.1361-0.63904-0.18935-0.42603-0.21304-0.94673-0.071-1.5621 0.18934-0.61536 0.142-1.3017-0.14201-2.0591-2.1775 2.3195-5.065 3.4792-8.6625 3.4792-6.6744 0-10.012-5.1596-10.012-15.479 0-5.7277 1.0651-10.059 3.1952-12.994 2.1775-2.9348 5.278-4.4023 9.3016-4.4023 1.8935 0 3.7869 0.33135 5.6804 0.99406 0.61538-0.85206 1.4674-1.2781 2.5562-1.2781zm-7.3844 6.4614c-2.6982 0-4.71 0.78106-6.0354 2.3432-1.3254 1.5621-1.9881 4.4259-1.9881 8.5915 0 7.0058 1.8934 10.509 5.6804 10.509 0.99406 0 2.0828-0.44971 3.2662-1.3491 1.2308-0.89939 2.0828-1.9171 2.5562-3.0532 0.89939-2.5562 1.3491-5.349 1.3491-8.3785s-0.37868-5.2307-1.1361-6.6034c-0.71006-1.3728-1.9408-2.0591-3.6922-2.0591zm18.106 24.497-0.78105-28.828c0-0.89938 0.30768-1.6331 0.92306-2.2011 0.61537-0.56804 1.2307-0.85206 1.8461-0.85206 1.5148 0 2.3905 0.63904 2.6272 1.9171 0.18934 1.2781 0.28402 2.6035 0.28402 3.9762 2.5562-3.3609 5.7514-5.0413 9.5856-5.0413 5.8697 0 8.8045 6.6981 8.8045 20.094v5.6094c0 2.4615-0.142 4.2603-0.42602 5.3963-0.33135 1.4201-1.3491 2.1301-3.0532 2.1301-1.1361 0-1.7041-0.75738-1.7041-2.2721l0.0711-3.9763c0-5.491-0.18935-9.2306-0.56804-11.219-0.33135-2.0355-0.6627-3.6449-0.99405-4.8283-0.80472-2.5562-2.1065-3.8342-3.9052-3.8342-2.3668 0-4.0236 0.85206-4.9703 2.5562-1.0414 1.8461-1.6568 4.0236-1.8461 6.5324-0.33135 4.4023-0.49704 9.0649-0.49704 13.988 0 0.94672-0.35501 1.7041-1.065 2.2721-0.71005 0.56805-1.5621 0.85206-2.5562 0.85206-1.1834 0-1.7751-0.75737-1.7751-2.2721zm46.366-31.029-0.071-13.704c0-2.5562 0.80472-3.8342 2.4142-3.8342 1.6568 0 2.5798 0.71004 2.7692 2.1301 0.0946 0.61537 0.21301 4.3313 0.35503 11.148 0.14201 6.8164 0.35502 13.207 0.63904 19.171 0.33136 5.9644 0.49702 11.526 0.49702 16.686 0 1.4201-1.065 2.1301-3.1952 2.1301-1.4201 0-2.1301-0.99407-2.1301-2.9822-2.0354 1.6094-4.4496 2.4141-7.2424 2.4141-3.5502 0-6.4377-1.3254-8.6626-3.9762-2.1774-2.6508-3.2662-5.917-3.2662-9.7986 0-3.8816 0.78104-7.5028 2.3431-10.864 1.6094-3.4082 4.0946-5.846 7.4555-7.3134 2.0828-0.8994 4.0946-1.3491 6.0354-1.3491 0.71005 0 1.3897 0.14201 2.0591 0.14201zm0.35502 9.7276c-0.33135-1.0414-0.73372-1.8224-1.2071-2.3432-0.47336-0.56804-0.99407-0.89939-1.5621-0.99406-0.52069-0.14201-1.1597-0.21302-1.9171-0.21302-0.75737 0-1.6804 0.28402-2.7692 0.85206-1.0887 0.56803-2.0118 1.4911-2.7692 2.7692-1.5148 2.5562-2.2721 5.2543-2.2721 8.0945 0 2.7928 0.54436 5.0886 1.6331 6.8874 1.1361 1.7514 2.7218 2.6272 4.7573 2.6272 2.0828 0 3.7159-1.0177 4.8993-3.0532s1.7751-4.639 1.7751-7.8105c0-3.5502-0.18934-5.8224-0.56802-6.8164zm22.934-9.5856c3.4082 0 6.201 1.6331 8.3785 4.8993 2.2248 3.2662 3.3372 7.1951 3.3372 11.787 0 4.5443-1.1361 8.4259-3.4082 11.645-2.2248 3.2189-5.207 4.8283-8.9466 4.8283-3.6922 0-6.6744-1.6331-8.9466-4.8993-2.2721-3.3135-3.4082-6.9821-3.4082-11.006 0-5.1596 1.0414-9.2779 3.1242-12.355 2.2248-3.2662 5.5147-4.8993 9.8696-4.8993zm-0.85205 5.8224c-1.9881 0-3.6212 1.0414-4.8993 3.1242-1.2781 2.0828-1.9171 4.2839-1.9171 6.6034 0 3.5976 0.71005 6.3431 2.1301 8.2365 1.4201 1.8935 3.0295 2.8402 4.8283 2.8402 3.2189 0 5.278-1.3964 6.1774-4.1893 0.3787-1.3254 0.56804-2.9822 0.56804-4.9703 0-7.7632-2.2958-11.645-6.8874-11.645z" stroke-linecap="square" stroke-width="4.2218" aria-label="Pando"/></g></svg>
